<?xml version="1.0" encoding="UTF-8" standalone="no"?>
<!-- Created with Inkscape (http://www.inkscape.org/) -->

<svg
   width="677.33337mm"
   height="381.00003mm"
   viewBox="0 0 677.33337 381.00003"
   version="1.1"
   id="svg5"
   xml:space="preserve"
   inkscape:version="1.2.1 (9c6d41e410, 2022-07-14, custom)"
   sodipodi:docname="xfce_gray_wallpaper.svg"
   xmlns:inkscape="http://www.inkscape.org/namespaces/inkscape"
   xmlns:sodipodi="http://sodipodi.sourceforge.net/DTD/sodipodi-0.dtd"
   xmlns="http://www.w3.org/2000/svg"
   xmlns:svg="http://www.w3.org/2000/svg"
   xmlns:rdf="http://www.w3.org/1999/02/22-rdf-syntax-ns#"
   xmlns:cc="http://creativecommons.org/ns#"><sodipodi:namedview
     id="namedview7"
     pagecolor="#ffffff"
     bordercolor="#999999"
     borderopacity="1"
     inkscape:showpageshadow="0"
     inkscape:pageopacity="0"
     inkscape:pagecheckerboard="0"
     inkscape:deskcolor="#d1d1d1"
     inkscape:document-units="mm"
     showgrid="false"
     inkscape:zoom="0.2973261"
     inkscape:cx="1372.2307"
     inkscape:cy="941.72694"
     inkscape:window-width="1920"
     inkscape:window-height="1018"
     inkscape:window-x="0"
     inkscape:window-y="32"
     inkscape:window-maximized="1"
     inkscape:current-layer="layer1" /><defs
     id="defs2"><inkscape:path-effect
       effect="rough_hatches"
       id="path-effect6440"
       is_visible="true"
       lpeversion="1.2"
       direction="1100.5458,474.73246 , 47.698549,-163.06221"
       dist_rdm="75;1"
       growth="0"
       do_bend="true"
       bender="1201.4691,491.19608 , -101.9991,54.983025"
       bottom_edge_variation="24.321454;1"
       top_edge_variation="24.321454;1"
       bottom_tgt_variation="0;1"
       top_tgt_variation="0;1"
       scale_bf="1"
       scale_bb="1"
       scale_tf="1"
       scale_tb="1"
       top_smth_variation="0;1"
       bottom_smth_variation="0;1"
       fat_output="true"
       stroke_width_top="1"
       stroke_width_bottom="1"
       front_thickness="1"
       back_thickness="0.25" /></defs><g
     inkscape:label="Слой 1"
     inkscape:groupmode="layer"
     id="layer1"
     transform="translate(269.38113,420.14804)"><rect
       style="fill:#474747;fill-opacity:1;stroke-width:0.638738;stroke-linecap:round;stroke-linejoin:round;paint-order:stroke fill markers"
       id="rect42831"
       width="677.33331"
       height="381"
       x="-269.38104"
       y="-420.14804"
       inkscape:export-filename="wallpp.png"
       inkscape:export-xdpi="96"
       inkscape:export-ydpi="96" /><g
       id="g44754"><g
         id="g44093"
         transform="matrix(0.18826818,0,0,0.19675796,9.88504,-261.88882)"
         style="fill:#424242;fill-opacity:1;stroke-width:0.998999;stroke-dasharray:none"><g
           inkscape:label="Layer 1"
           id="g44061"
           transform="translate(-35.477954,-382.24677)"
           style="fill:#424242;fill-opacity:1;stroke-width:0.998999;stroke-dasharray:none" /><g
           id="g44069"
           inkscape:label="Big X"
           transform="translate(-35.477954,-382.24677)"
           style="fill:#424242;fill-opacity:1;stroke-width:0.998999;stroke-dasharray:none"><g
             inkscape:groupmode="layer"
             id="g44063"
             inkscape:label="X_Shadow"
             style="fill:#424242;fill-opacity:1;stroke-width:0.998999;stroke-dasharray:none" /><g
             inkscape:groupmode="layer"
             id="g44065"
             inkscape:label="X_Path"
             style="fill:#424242;fill-opacity:1;stroke-width:0.998999;stroke-dasharray:none" /><g
             inkscape:groupmode="layer"
             id="g44067"
             inkscape:label="X_Gloss"
             style="fill:#424242;fill-opacity:1;stroke-width:0.998999;stroke-dasharray:none" /></g><g
           id="g44077"
           inkscape:label="Xfce"
           transform="translate(-35.477954,-382.24677)"
           style="fill:#424242;fill-opacity:1;stroke-width:0.998999;stroke-dasharray:none"><g
             inkscape:groupmode="layer"
             id="g44071"
             inkscape:label="Xfce_Shadow"
             style="fill:#424242;fill-opacity:1;stroke-width:0.998999;stroke-dasharray:none" /><g
             inkscape:groupmode="layer"
             id="g44073"
             inkscape:label="Xfce_Path"
             style="fill:#424242;fill-opacity:1;stroke-width:0.998999;stroke-dasharray:none" /><g
             inkscape:groupmode="layer"
             id="g44075"
             inkscape:label="Xfce_Gloss"
             style="fill:#424242;fill-opacity:1;stroke-width:0.998999;stroke-dasharray:none" /></g><g
           id="g44091"
           inkscape:label="Mouse"
           transform="translate(-35.477954,-382.24677)"
           style="fill:#424242;fill-opacity:1;stroke-width:0.998999;stroke-dasharray:none"><g
             inkscape:groupmode="layer"
             id="g44079"
             inkscape:label="Mouse_Shadow"
             style="fill:#424242;fill-opacity:1;stroke-width:0.998999;stroke-dasharray:none" /><g
             inkscape:groupmode="layer"
             id="g44087"
             inkscape:label="Mouse_Path"
             style="fill:#424242;fill-opacity:1;stroke-width:0.998999;stroke-dasharray:none"><path
               inkscape:connector-curvature="0"
               d="m 686.01129,438.94339 c -3.353,-2.77349 -29.64674,38.71236 -23.83256,43.01749 3.49603,2.61546 25.33033,-41.53853 23.83256,-43.01749 z"
               id="path44081"
               style="fill:#424242;fill-opacity:1;fill-rule:evenodd;stroke:none;stroke-width:0.998999;stroke-linecap:butt;stroke-linejoin:miter;stroke-miterlimit:4;stroke-dasharray:none;stroke-opacity:1"
               inkscape:export-filename="/home/knome/Stuff/xubuntu-mouse-draft-2.png"
               inkscape:export-xdpi="1026.8827"
               inkscape:export-ydpi="1026.8827" /><path
               inkscape:connector-curvature="0"
               d="m 655.78463,433.1306 c -1.65949,-1.92678 -10.46548,42.78039 -6.39371,44.75985 3.49601,2.61546 9.58499,-42.43418 6.39371,-44.75985 z"
               id="path44083"
               style="fill:#424242;fill-opacity:1;fill-rule:evenodd;stroke:none;stroke-width:0.998999;stroke-linecap:butt;stroke-linejoin:miter;stroke-miterlimit:4;stroke-dasharray:none;stroke-opacity:1"
               inkscape:export-filename="/home/knome/Stuff/xubuntu-mouse-draft-2.png"
               inkscape:export-xdpi="1026.8827"
               inkscape:export-ydpi="1026.8827" /><path
               inkscape:connector-curvature="0"
               style="fill:#424242;fill-opacity:1;fill-rule:evenodd;stroke:none;stroke-width:0.998999;stroke-linecap:butt;stroke-linejoin:miter;stroke-miterlimit:4;stroke-dasharray:none;stroke-opacity:1"
               d="m 37.625,384.15853 c -3.443355,1.88538 27.552632,22.09367 85.46875,45.9375 57.91987,23.84382 137.92965,84.27698 131.65625,94.03125 -18.81237,26.49691 -29.90817,58.18792 -22.25,112.46875 1.38111,9.55483 -28.31634,26.14558 -26.15625,40.5625 1.80637,10.9698 33.19295,-10.87512 36.625,-6.5625 2.0999,7.74098 -16.79186,46.91895 -9.15625,49.71875 5.58462,1.6596 54.67873,-46.58659 57.53125,-45.78125 80.96219,24.47603 186.3041,5.99395 188.34375,5.21875 -0.19196,-0.42524 75.80178,35.72642 82.40625,31.40625 16.65983,-18.04093 -31.57326,-43.46801 -23.53125,-53.625 3.52614,-5.31744 58.74796,19.9643 61.46875,13.0625 3.95898,-11.94824 -25.64187,-37.03634 -30.09375,-44.46875 -3.87242,-6.85285 -4.71239,-17.9194 5.21875,-24.84375 9.9349,-6.92434 111.50996,-45.77552 107.25,-75.84375 -7.36468,-54.63458 -128.82052,-58.18257 -130.78125,-62.78125 -0.92191,-2.1601 5.3446,-78.12685 -30.09375,-64.09375 -21.81925,8.12105 -4.00496,56.52301 -2.59375,62.78125 1.30204,5.7615 -9.70773,5.15389 -11.78125,2.625 -4.6287,-5.65237 -19.9116,-56.10291 -37.9375,-47.09375 -25.28137,13.939 -1.48853,57.43256 -6.53125,58.84375 -9.36668,5.23466 -8.83606,18.02087 -16.34375,28.4375 -12.38092,17.74363 -105.021,-8.31111 -134.96875,-10.125 -21.92462,-1.29455 -42.8956,16.69428 -44.875,14.40625 -26.69638,-26.73399 -81.9285,-73.2869 -142.4375,-88.75 C 90.129469,410.48114 39.649614,383.81985 37.625,384.15853 Z m 529.46875,102.21875 c 5.78951,-10e-6 10.46875,5.34579 10.46875,11.9375 2e-5,6.59167 -4.67924,11.9375 -10.46875,11.9375 -5.78954,0 -10.5,-5.34583 -10.5,-11.9375 10e-6,-6.59171 4.71046,-11.9375 10.5,-11.9375 z m -23.53125,7.25 c 4.45553,19.23387 11.41036,25.36339 32.28125,24.75 -26.56462,24.35939 -42.70923,-17.37781 -32.28125,-24.75 z M 601,543.90853 c 1.08692,0.0412 1.92367,0.28894 2.46875,0.8125 10.46545,3.79336 -44.97502,23.75615 -45.34375,20.9375 -0.57648,-2.01216 32.36808,-22.14821 42.875,-21.75 z m 5.625,12.78125 c 0.57282,-0.0444 1.07711,0.032 1.5,0.25 9.87845,9.8145 -31.27532,31.57642 -30.8125,30.8125 -3.31635,-2.00393 20.72016,-30.39586 29.3125,-31.0625 z"
               id="path44085" /></g><g
             inkscape:groupmode="layer"
             id="g44089"
             inkscape:label="Mouse_Gloss"
             style="fill:#424242;fill-opacity:1;stroke-width:0.998999;stroke-dasharray:none" /></g></g><g
         id="g42865"
         transform="matrix(0.19075215,0,0,0.19085119,6.86233,-262.20419)"
         style="fill:#858585;fill-opacity:1;stroke-width:0.998999;stroke-dasharray:none"><g
           inkscape:label="Layer 1"
           id="g42833"
           transform="translate(-35.477954,-382.24677)"
           style="fill:#858585;fill-opacity:1;stroke-width:0.998999;stroke-dasharray:none" /><g
           id="g42841"
           inkscape:label="Big X"
           transform="translate(-35.477954,-382.24677)"
           style="fill:#858585;fill-opacity:1;stroke-width:0.998999;stroke-dasharray:none"><g
             inkscape:groupmode="layer"
             id="g42835"
             inkscape:label="X_Shadow"
             style="fill:#858585;fill-opacity:1;stroke-width:0.998999;stroke-dasharray:none" /><g
             inkscape:groupmode="layer"
             id="g42837"
             inkscape:label="X_Path"
             style="fill:#858585;fill-opacity:1;stroke-width:0.998999;stroke-dasharray:none" /><g
             inkscape:groupmode="layer"
             id="g42839"
             inkscape:label="X_Gloss"
             style="fill:#858585;fill-opacity:1;stroke-width:0.998999;stroke-dasharray:none" /></g><g
           id="g42849"
           inkscape:label="Xfce"
           transform="translate(-35.477954,-382.24677)"
           style="fill:#858585;fill-opacity:1;stroke-width:0.998999;stroke-dasharray:none"><g
             inkscape:groupmode="layer"
             id="g42843"
             inkscape:label="Xfce_Shadow"
             style="fill:#858585;fill-opacity:1;stroke-width:0.998999;stroke-dasharray:none" /><g
             inkscape:groupmode="layer"
             id="g42845"
             inkscape:label="Xfce_Path"
             style="fill:#858585;fill-opacity:1;stroke-width:0.998999;stroke-dasharray:none" /><g
             inkscape:groupmode="layer"
             id="g42847"
             inkscape:label="Xfce_Gloss"
             style="fill:#858585;fill-opacity:1;stroke-width:0.998999;stroke-dasharray:none" /></g><g
           id="g42863"
           inkscape:label="Mouse"
           transform="translate(-35.477954,-382.24677)"
           style="fill:#858585;fill-opacity:1;stroke-width:0.998999;stroke-dasharray:none"><g
             inkscape:groupmode="layer"
             id="g42851"
             inkscape:label="Mouse_Shadow"
             style="fill:#858585;fill-opacity:1;stroke-width:0.998999;stroke-dasharray:none" /><g
             inkscape:groupmode="layer"
             id="g42859"
             inkscape:label="Mouse_Path"
             style="fill:#858585;fill-opacity:1;stroke-width:0.998999;stroke-dasharray:none"><path
               inkscape:connector-curvature="0"
               d="m 686.01129,438.94339 c -3.353,-2.77349 -29.64674,38.71236 -23.83256,43.01749 3.49603,2.61546 25.33033,-41.53853 23.83256,-43.01749 z"
               id="path42853"
               style="fill:#858585;fill-opacity:1;fill-rule:evenodd;stroke:none;stroke-width:0.998999;stroke-linecap:butt;stroke-linejoin:miter;stroke-miterlimit:4;stroke-dasharray:none;stroke-opacity:1"
               inkscape:export-filename="/home/knome/Stuff/xubuntu-mouse-draft-2.png"
               inkscape:export-xdpi="1026.8827"
               inkscape:export-ydpi="1026.8827" /><path
               inkscape:connector-curvature="0"
               d="m 655.78463,433.1306 c -1.65949,-1.92678 -10.46548,42.78039 -6.39371,44.75985 3.49601,2.61546 9.58499,-42.43418 6.39371,-44.75985 z"
               id="path42855"
               style="fill:#858585;fill-opacity:1;fill-rule:evenodd;stroke:none;stroke-width:0.998999;stroke-linecap:butt;stroke-linejoin:miter;stroke-miterlimit:4;stroke-dasharray:none;stroke-opacity:1"
               inkscape:export-filename="/home/knome/Stuff/xubuntu-mouse-draft-2.png"
               inkscape:export-xdpi="1026.8827"
               inkscape:export-ydpi="1026.8827" /><path
               inkscape:connector-curvature="0"
               style="fill:#858585;fill-opacity:1;fill-rule:evenodd;stroke:none;stroke-width:0.998999;stroke-linecap:butt;stroke-linejoin:miter;stroke-miterlimit:4;stroke-dasharray:none;stroke-opacity:1"
               d="m 37.625,384.15853 c -3.443355,1.88538 27.552632,22.09367 85.46875,45.9375 57.91987,23.84382 137.92965,84.27698 131.65625,94.03125 -18.81237,26.49691 -29.90817,58.18792 -22.25,112.46875 1.38111,9.55483 -28.31634,26.14558 -26.15625,40.5625 1.80637,10.9698 33.19295,-10.87512 36.625,-6.5625 2.0999,7.74098 -16.79186,46.91895 -9.15625,49.71875 5.58462,1.6596 54.67873,-46.58659 57.53125,-45.78125 80.96219,24.47603 186.3041,5.99395 188.34375,5.21875 -0.19196,-0.42524 75.80178,35.72642 82.40625,31.40625 16.65983,-18.04093 -31.57326,-43.46801 -23.53125,-53.625 3.52614,-5.31744 58.74796,19.9643 61.46875,13.0625 3.95898,-11.94824 -25.64187,-37.03634 -30.09375,-44.46875 -3.87242,-6.85285 -4.71239,-17.9194 5.21875,-24.84375 9.9349,-6.92434 111.50996,-45.77552 107.25,-75.84375 -7.36468,-54.63458 -128.82052,-58.18257 -130.78125,-62.78125 -0.92191,-2.1601 5.3446,-78.12685 -30.09375,-64.09375 -21.81925,8.12105 -4.00496,56.52301 -2.59375,62.78125 1.30204,5.7615 -9.70773,5.15389 -11.78125,2.625 -4.6287,-5.65237 -19.9116,-56.10291 -37.9375,-47.09375 -25.28137,13.939 -1.48853,57.43256 -6.53125,58.84375 -9.36668,5.23466 -8.83606,18.02087 -16.34375,28.4375 -12.38092,17.74363 -105.021,-8.31111 -134.96875,-10.125 -21.92462,-1.29455 -42.8956,16.69428 -44.875,14.40625 -26.69638,-26.73399 -81.9285,-73.2869 -142.4375,-88.75 C 90.129469,410.48114 39.649614,383.81985 37.625,384.15853 Z m 529.46875,102.21875 c 5.78951,-10e-6 10.46875,5.34579 10.46875,11.9375 2e-5,6.59167 -4.67924,11.9375 -10.46875,11.9375 -5.78954,0 -10.5,-5.34583 -10.5,-11.9375 10e-6,-6.59171 4.71046,-11.9375 10.5,-11.9375 z m -23.53125,7.25 c 4.45553,19.23387 11.41036,25.36339 32.28125,24.75 -26.56462,24.35939 -42.70923,-17.37781 -32.28125,-24.75 z M 601,543.90853 c 1.08692,0.0412 1.92367,0.28894 2.46875,0.8125 10.46545,3.79336 -44.97502,23.75615 -45.34375,20.9375 -0.57648,-2.01216 32.36808,-22.14821 42.875,-21.75 z m 5.625,12.78125 c 0.57282,-0.0444 1.07711,0.032 1.5,0.25 9.87845,9.8145 -31.27532,31.57642 -30.8125,30.8125 -3.31635,-2.00393 20.72016,-30.39586 29.3125,-31.0625 z"
               id="path42857" /></g><g
             inkscape:groupmode="layer"
             id="g42861"
             inkscape:label="Mouse_Gloss"
             style="fill:#858585;fill-opacity:1;stroke-width:0.998999;stroke-dasharray:none" /></g></g></g><g
       id="g44699"><path
         style="fill:#444444;fill-opacity:1;stroke:none;stroke-width:0.264583px;stroke-linecap:butt;stroke-linejoin:miter;stroke-opacity:1"
         d="m -47.99196,-255.67573 c -5.6456,16.82588 -2.67708,34.50715 9.73352,47.69973 11.70096,12.43825 133.48771,53.39599 70.3099,87.68459 -78.06119,42.36626 -148.20567,-67.55794 -125.46648,-136.81531 10.93603,-33.30815 59.43478,-37.27639 45.42306,1.43099 z"
         id="path43913" /><path
         style="fill:#595959;fill-opacity:1;stroke:none;stroke-width:0.264583px;stroke-linecap:butt;stroke-linejoin:miter;stroke-opacity:1"
         d="m -53.70671,-256.6712 c -5.6456,16.82588 -2.67708,34.50715 9.73352,47.69973 11.70096,12.43825 133.48771,53.39599 70.3099,87.68459 -78.06119,42.36626 -148.20567,-67.55794 -125.46648,-136.81531 10.93603,-33.30815 59.43478,-37.27639 45.42306,1.43099 z"
         id="path43099" /><path
         style="fill:#3d3d3d;fill-opacity:1;stroke:none;stroke-width:0.264583px;stroke-linecap:butt;stroke-linejoin:miter;stroke-opacity:1"
         d="m -44.79084,-246.75687 c -2.25113,8.62539 -0.13409,19.1317 5.81374,26.05918 4.80634,5.59798 10.91459,10.89782 17.18051,14.79668 6.99151,4.35036 14.21839,8.48452 21.50822,12.31835 22.65844,11.9164 -20.66526,-23.47616 -25.31454,-29.16809 -7.32124,-8.96314 -4.4177,-25.16723 -12.4096,-31.91039 -3.87162,-3.26668 -6.07682,5.59581 -6.77833,7.90427 z"
         id="path43892" /><path
         style="fill:none;stroke:#858585;stroke-width:1.765;stroke-linecap:round;stroke-linejoin:round;stroke-dasharray:none;stroke-opacity:1"
         d="m -57.79485,-268.92099 c -8.93024,8.96035 -13.08216,22.1223 -13.00922,34.63803 0.25099,43.06057 54.11671,47.1354 76.46501,67.2963"
         id="path43896" /></g><g
       id="g44705"><path
         style="fill:#444444;fill-opacity:1;stroke:none;stroke-width:0.264583px;stroke-linecap:butt;stroke-linejoin:miter;stroke-opacity:1"
         d="m 77.0493,-340.87099 c 40.91654,-2.92452 53.72505,39.26456 82.40304,55.45612 56.12959,31.6907 128.6164,-21.42467 34.50974,-73.81016 -41.56823,-23.1394 -103.12945,-32.4816 -148.54671,-17.52447 -45.40271,14.95232 2.20311,38.94 31.63393,35.87851 z"
         id="path43915" /><path
         style="fill:#595959;fill-opacity:1;stroke:none;stroke-width:0.264583px;stroke-linecap:butt;stroke-linejoin:miter;stroke-opacity:1"
         d="m 81.58423,-343.5878 c 40.91654,-2.92452 53.72505,39.26456 82.40304,55.45612 56.12959,31.6907 128.6164,-21.42467 34.50974,-73.81016 -41.56823,-23.1394 -103.12945,-32.4816 -148.54671,-17.52447 -45.40271,14.95232 2.20311,38.94 31.63393,35.87851 z"
         id="path43095" /><path
         style="fill:#3d3d3d;fill-opacity:1;stroke:none;stroke-width:0.264583px;stroke-linecap:butt;stroke-linejoin:miter;stroke-opacity:1"
         d="m 71.38143,-336.20808 c 35.03514,-6.58627 48.28894,38.25071 76.20431,52.99824 4.04707,2.13804 17.52341,9.30055 12.87886,15.95519 -4.88016,6.9922 -18.71128,-3.88352 -22.55105,-7.33234 -16.3939,-14.72478 -29.74065,-36.96322 -47.44847,-49.34672 -6.98489,-4.88472 -22.37216,1.32122 -26.20094,-7.8603 -1.02735,-2.46364 5.54757,-3.84312 7.11729,-4.41407 z"
         id="path43882" /><path
         style="fill:none;stroke:#858585;stroke-width:1.765;stroke-linecap:round;stroke-linejoin:round;stroke-dasharray:none;stroke-opacity:1"
         d="m 99.25435,-379.52284 c 4.99446,-0.0431 9.96288,0.17023 14.93843,0.60126 20.23803,1.75326 38.6634,5.80189 57.27707,13.99014 21.3254,9.38112 90.77852,57.96362 34.12639,68.86543"
         id="path43898" /></g><g
       id="g44711"><path
         id="path43919"
         style="fill:#444444;fill-opacity:1;stroke:none;stroke-width:0.264583px;stroke-linecap:butt;stroke-linejoin:miter;stroke-opacity:1"
         d="m 289.62362,-416.00022 c 20.11041,14.53224 57.74959,23.11218 69.12756,34.30179 22.97604,22.59563 5.08331,60.29075 22.26893,79.72123 6.34371,7.17238 16.50358,7.29941 25.67853,8.86871 v -122.89173 z" /><path
         id="path43107"
         style="fill:#595959;fill-opacity:1;stroke:none;stroke-width:0.264583px;stroke-linecap:butt;stroke-linejoin:miter;stroke-opacity:1"
         d="m 290.87718,-420.14802 c 20.11041,14.53224 57.74959,23.11218 69.12756,34.30179 22.97604,22.59563 5.08331,60.29075 22.26893,79.72123 6.34371,7.17238 16.50358,7.29941 25.67853,8.86871 v -122.89173 z" /><path
         style="fill:#3d3d3d;fill-opacity:1;stroke:none;stroke-width:0.264583px;stroke-linecap:butt;stroke-linejoin:miter;stroke-opacity:1"
         d="m 279.81051,-413.32758 c 18.86962,29.35417 67.62951,17.65323 76.23038,58.77612 2.4717,11.81786 -2.38952,23.79613 0.46927,35.64991 1.53357,6.35884 24.58196,25.43781 19.78757,29.79867 -2.16534,1.96953 -7.03507,-0.28699 -9.09863,-1.33448 -31.95787,-16.22253 -13.16848,-49.53693 -25.83595,-73.76348 -10.97405,-20.98786 -38.90669,-13.86951 -55.13929,-27.71626 -7.82166,-6.67206 -10.80931,-32.19157 -6.41335,-21.41048 z"
         id="path43880" /><path
         style="fill:none;stroke:#858585;stroke-width:1.765;stroke-linecap:round;stroke-linejoin:round;stroke-dasharray:none;stroke-opacity:1"
         d="m 353.76058,-414.53823 c -1.26481,4.40341 3.01813,5.91235 7.22155,7.81627 55.52383,25.14949 3.33082,65.41196 40.40938,86.12579"
         id="path43900" /></g><g
       id="g44718"><path
         id="path43910"
         style="fill:#444444;fill-opacity:1;stroke:none;stroke-width:0.264583px;stroke-linecap:butt;stroke-linejoin:miter;stroke-opacity:1"
         d="m 374.76942,-189.21637 c -16.71382,0.009 -33.29262,6.59502 -47.41416,19.56676 -59.87368,54.99864 -108.7522,-21.17981 -163.88406,28.61996 -23.63031,21.3449 14.23202,49.31292 20.24115,69.08157 2.8534,9.38705 1.1153,21.93443 2.51405,32.80006 h 215.38427 v -144.27336 c -8.74332,-3.86603 -17.81059,-5.79971 -26.84125,-5.79499 z" /><path
         id="path43093"
         style="fill:#595959;fill-opacity:1;stroke:none;stroke-width:0.264583px;stroke-linecap:butt;stroke-linejoin:miter;stroke-opacity:1"
         d="m 381.11095,-189.21637 c -16.71382,0.009 -33.29262,6.59502 -47.41416,19.56676 -59.87368,54.99864 -108.7522,-21.17981 -163.88406,28.61996 -23.63031,21.3449 14.23202,49.31292 20.24115,69.08157 2.8534,9.38705 1.1153,21.93443 2.51405,32.80006 H 407.9522 v -144.27336 c -8.74332,-3.86603 -17.81059,-5.79971 -26.84125,-5.79499 z" /><path
         style="fill:#3d3d3d;fill-opacity:1;stroke:none;stroke-width:0.264583px;stroke-linecap:butt;stroke-linejoin:miter;stroke-opacity:1"
         d="m 332.26973,-192.34736 c -32.83746,40.31493 -60.87996,24.63458 -102.06633,18.31621 -16.35525,-2.50904 -40.45924,6.07456 -40.46155,6.05653 -1.7845,-13.90954 17.11287,-13.94907 26.74842,-14.19543 28.95969,-0.74045 56.41721,18.4906 84.88582,2.68364 4.43523,-2.46263 45.94334,-35.58402 30.89364,-12.86095 z"
         id="path43884" /><path
         style="fill:#3d3d3d;fill-opacity:1;stroke:none;stroke-width:0.264583px;stroke-linecap:butt;stroke-linejoin:miter;stroke-opacity:1"
         d="m 165.83925,-95.59703 c -3.81387,-6.10218 -10.39681,-6.21578 -10.03716,1.02653 0.31062,6.25515 11.01952,13.45994 13.84347,19.19609 0.70632,1.43472 5.05579,31.58956 10.21967,22.73029 7.94543,-13.63138 -11.17405,-30.54702 -14.02598,-42.95291 z"
         id="path43886" /><path
         style="fill:none;stroke:#858585;stroke-width:1.765;stroke-linecap:round;stroke-linejoin:round;stroke-dasharray:none;stroke-opacity:1"
         d="m 384.14495,-151.88234 c -10.8752,-3.69226 -19.30693,-2.39182 -29.77261,0.61592 -24.21047,6.95787 -25.11886,32.56059 -46.5881,38.96411 -23.63822,7.05046 -52.33434,-18.7526 -70.88592,7.49367 -12.09545,17.11232 7.35418,33.91481 -0.57355,51.56109"
         id="path43902" /></g><g
       id="g44693"><path
         id="path43921"
         style="fill:#444444;fill-opacity:1;stroke:none;stroke-width:0.273468px;stroke-linecap:butt;stroke-linejoin:miter;stroke-opacity:1"
         d="m -269.01246,-160.75892 v 121.6109 H -26.6311 c -4.59522,-56.76764 -183.96372,-36.52071 -204.17245,-77.63484 -8.87664,-18.05929 -21.82753,-34.77848 -38.20891,-43.97606 z" /><path
         id="path43103"
         style="fill:#595959;fill-opacity:1;stroke:none;stroke-width:0.264583px;stroke-linecap:butt;stroke-linejoin:miter;stroke-opacity:1"
         d="m -269.38113,-155.98895 v 116.84093 h 236.15044 c -4.47709,-54.54103 -179.23455,-35.08826 -198.92377,-74.58976 -8.64845,-17.35094 -21.26641,-33.41435 -37.22667,-42.25117 z" /><path
         style="fill:#3d3d3d;fill-opacity:1;stroke:none;stroke-width:0.264583px;stroke-linecap:butt;stroke-linejoin:miter;stroke-opacity:1"
         d="m -254.29403,-159.67788 c 49.2906,53.73844 47.42738,46.46472 119.24683,61.45977 3.11071,0.64948 32.56772,11.61079 34.59565,8.50553 5.38231,-8.24167 -84.5538,-25.90266 -91.58595,-28.0829 -21.46384,-6.65464 -33.52313,-34.57698 -52.58435,-47.19102 -7.80436,-5.16464 -20.61329,-2.709 -9.67218,5.30862 z"
         id="path43888" /><path
         style="fill:none;stroke:#858585;stroke-width:1.765;stroke-linecap:round;stroke-linejoin:round;stroke-dasharray:none;stroke-opacity:1"
         d="m -95.86139,-57.14043 c -10.07324,-10.63519 -25.20106,-15.06903 -39.7837,-16.84974 -30.45071,-3.71838 -90.4513,16.46165 -108.34934,-20.48659 -2.80823,-5.79726 -6.59807,-11.90641 -4.84912,-16.99639"
         id="path43904" /></g><g
       id="g44687"><path
         id="path43917"
         style="fill:#444444;fill-opacity:1;stroke:none;stroke-width:0.264583px;stroke-linecap:butt;stroke-linejoin:miter;stroke-opacity:1"
         d="m -269.15991,-416.35277 v 131.49792 c 13.1523,-6.50277 25.50169,-22.1128 39.32835,-27.06501 27.04552,-9.68671 59.86419,-9.82006 72.78005,-40.54482 10.80522,-25.70392 -8.69188,-44.23428 -14.39912,-63.88809 z" /><path
         id="path43101"
         style="fill:#595959;fill-opacity:1;stroke:none;stroke-width:0.264583px;stroke-linecap:butt;stroke-linejoin:miter;stroke-opacity:1"
         d="m -269.38113,-420.14802 v 131.49792 c 13.1523,-6.50277 25.50169,-22.1128 39.32835,-27.06501 27.04552,-9.68671 59.86419,-9.82006 72.78005,-40.54482 10.80522,-25.70392 -8.69188,-44.23428 -14.39912,-63.88809 z" /><path
         style="fill:#3d3d3d;fill-opacity:1;stroke:none;stroke-width:0.264583px;stroke-linecap:butt;stroke-linejoin:miter;stroke-opacity:1"
         d="m -157.85897,-408.21906 c 13.90701,24.74783 18.00863,57.93502 -6.41334,77.8256 -2.41506,1.96694 -50.18005,15.09178 -45.10212,17.71494 6.19234,3.19883 19.54403,0.0321 25.86202,-1.46648 34.55133,-8.19553 46.97947,-34.90034 42.26041,-70.62518 -1.0233,-7.74663 -22.39544,-39.59611 -16.60697,-23.44888 z"
         id="path43894" /><path
         style="fill:none;stroke:#858585;stroke-width:1.765;stroke-linecap:round;stroke-linejoin:round;stroke-dasharray:none;stroke-opacity:1"
         d="m -187.88532,-400.82229 c 53.83064,83.76505 -78.29688,31.95561 -72.50229,92.25563"
         id="path43906" /></g></g><metadata
     id="metadata44772"><rdf:RDF><cc:Work
         rdf:about=""><cc:license
           rdf:resource="http://creativecommons.org/licenses/by-sa/4.0/" /></cc:Work><cc:License
         rdf:about="http://creativecommons.org/licenses/by-sa/4.0/"><cc:permits
           rdf:resource="http://creativecommons.org/ns#Reproduction" /><cc:permits
           rdf:resource="http://creativecommons.org/ns#Distribution" /><cc:requires
           rdf:resource="http://creativecommons.org/ns#Notice" /><cc:requires
           rdf:resource="http://creativecommons.org/ns#Attribution" /><cc:permits
           rdf:resource="http://creativecommons.org/ns#DerivativeWorks" /><cc:requires
           rdf:resource="http://creativecommons.org/ns#ShareAlike" /></cc:License></rdf:RDF></metadata></svg>
